<svg xmlns="http://www.w3.org/2000/svg" viewBox="0 0 64 64" fill="none">
  <circle cx="32" cy="32" r="7" stroke="#111110" stroke-width="1.7"/>
  <circle cx="32" cy="32" r="2.8" fill="#111110"/>
  <line x1="32" y1="25" x2="32" y2="9" stroke="#111110" stroke-width="1.5"/>
  <circle cx="32" cy="6.5" r="3.5" fill="#111110"/>
  <line x1="37" y1="27" x2="49" y2="15" stroke="#111110" stroke-width="1.5"/>
  <circle cx="51.5" cy="12.5" r="3.5" fill="#111110"/>
  <line x1="39" y1="32" x2="55" y2="32" stroke="#111110" stroke-width="1.5"/>
  <circle cx="58" cy="32" r="3.5" fill="#111110"/>
  <line x1="37" y1="37" x2="49" y2="49" stroke="#111110" stroke-width="1.5"/>
  <circle cx="51.5" cy="51.5" r="3.5" fill="#111110"/>
  <line x1="32" y1="39" x2="32" y2="55" stroke="#111110" stroke-width="1.5"/>
  <circle cx="32" cy="58" r="3" stroke="#111110" stroke-width="1.5"/>
  <line x1="27" y1="37" x2="15" y2="49" stroke="#111110" stroke-width="1.5"/>
  <circle cx="12.5" cy="51.5" r="3.5" fill="#111110"/>
  <line x1="25" y1="32" x2="9" y2="32" stroke="#111110" stroke-width="1.5"/>
  <circle cx="6.5" cy="32" r="3" stroke="#111110" stroke-width="1.5"/>
  <line x1="27" y1="27" x2="16" y2="16" stroke="#111110" stroke-width="1.5"/>
  <circle cx="13.5" cy="13.5" r="3" stroke="#111110" stroke-width="1.5"/>
</svg>